<?xml version="1.0" encoding="UTF-8" standalone="no"?>
<!DOCTYPE svg PUBLIC "-//W3C//DTD SVG 1.1//EN" "http://www.w3.org/Graphics/SVG/1.1/DTD/svg11.dtd">
<svg width="100%" height="100%" viewBox="0 0 200 238" version="1.1" xmlns="http://www.w3.org/2000/svg" xmlns:xlink="http://www.w3.org/1999/xlink" xml:space="preserve" xmlns:serif="http://www.serif.com/" style="fill-rule:evenodd;clip-rule:evenodd;stroke-linejoin:round;stroke-miterlimit:2;">
    <g transform="matrix(1,0,0,1,-360.495,-30.7625)">
        <g>
            <g transform="matrix(1.64565,0,0,1.15943,-234.115,-193.544)">
                <path d="M400,201.535C400,197.076 397.453,193.462 394.312,193.462C386.988,193.462 374.334,193.462 367.01,193.462C363.869,193.462 361.322,197.076 361.322,201.535C361.322,234.35 361.322,357.545 361.322,390.361C361.322,394.82 363.869,398.434 367.01,398.434C374.334,398.434 386.988,398.434 394.312,398.434C397.453,398.434 400,394.82 400,390.361C400,357.545 400,234.35 400,201.535Z" style="fill:rgb(208,208,208);"/>
            </g>
            <g transform="matrix(1.64565,0,0,1.15943,-98.7517,-193.544)">
                <path d="M400,201.535C400,197.076 397.453,193.462 394.312,193.462C386.988,193.462 374.334,193.462 367.01,193.462C363.869,193.462 361.322,197.076 361.322,201.535C361.322,234.35 361.322,357.545 361.322,390.361C361.322,394.82 363.869,398.434 367.01,398.434C374.334,398.434 386.988,398.434 394.312,398.434C397.453,398.434 400,394.82 400,390.361C400,357.545 400,234.35 400,201.535Z" style="fill:rgb(208,208,208);"/>
            </g>
        </g>
    </g>
</svg>
