<?xml version="1.0" encoding="UTF-8" standalone="no"?>
<!DOCTYPE svg PUBLIC "-//W3C//DTD SVG 1.1//EN" "http://www.w3.org/Graphics/SVG/1.1/DTD/svg11.dtd">
<svg width="100%" height="100%" viewBox="0 0 208 239" version="1.1" xmlns="http://www.w3.org/2000/svg" xmlns:xlink="http://www.w3.org/1999/xlink" xml:space="preserve" xmlns:serif="http://www.serif.com/" style="fill-rule:evenodd;clip-rule:evenodd;stroke-linejoin:round;stroke-miterlimit:2;">
    <g transform="matrix(1,0,0,1,-95.0464,-30.7625)">
        <g transform="matrix(0.709285,-0.709285,0.709285,0.709285,-259.44,118.034)">
            <path d="M315.93,205.232C314.998,201.753 312.281,199.036 308.802,198.105C305.324,197.173 301.612,198.167 299.066,200.714C267.961,231.819 186.646,313.134 155.628,344.151C153.089,346.69 152.093,350.388 153.012,353.859C153.931,357.33 156.628,360.051 160.091,361C202.478,372.622 313.766,403.136 356.399,414.826C359.882,415.781 363.61,414.799 366.172,412.253C368.733,409.706 369.736,405.984 368.801,402.495C357.335,359.715 327.362,247.886 315.93,205.232Z" style="fill:rgb(208,208,208);"/>
        </g>
    </g>
</svg>
