<?xml version="1.0" encoding="UTF-8" standalone="no"?>
<!DOCTYPE svg PUBLIC "-//W3C//DTD SVG 1.1//EN" "http://www.w3.org/Graphics/SVG/1.1/DTD/svg11.dtd">
<svg width="100%" height="100%" viewBox="0 0 210 238" version="1.1" xmlns="http://www.w3.org/2000/svg" xmlns:xlink="http://www.w3.org/1999/xlink" xml:space="preserve" xmlns:serif="http://www.serif.com/" style="fill-rule:evenodd;clip-rule:evenodd;stroke-linejoin:round;stroke-miterlimit:2;">
    <g transform="matrix(1,0,0,1,-95.0464,-293.328)">
        <g transform="matrix(1,0,0,1,-85.6557,9.36603)">
            <path d="M276.305,312.975C280.832,312.598 284.315,308.814 284.315,304.271C284.329,302.724 284.329,301.064 284.329,299.383C284.329,296.233 286.022,293.327 288.761,291.773C291.5,290.219 294.863,290.257 297.566,291.873C313.85,301.605 341.294,318.006 357.264,327.551C359.907,329.13 361.525,331.982 361.525,335.061C361.525,338.139 359.907,340.991 357.264,342.57C341.294,352.115 313.85,368.516 297.566,378.248C294.863,379.864 291.5,379.902 288.761,378.348C286.022,376.794 284.329,373.888 284.329,370.738L284.329,366.401C284.329,363.794 283.167,361.324 281.16,359.662C279.152,357.999 276.507,357.319 273.947,357.806C246,363.082 224.86,387.626 224.86,417.107C224.86,450.415 251.901,477.457 285.209,477.457C315.958,477.457 341.335,454.46 345.082,424.727C345.648,420.375 349.356,417.119 353.745,417.119C361.36,417.107 372.686,417.107 380.589,417.107C383.047,417.107 385.392,418.141 387.05,419.957C388.707,421.772 389.525,424.201 389.302,426.649C384.467,479.894 339.71,521.614 285.209,521.614C227.53,521.614 180.702,474.786 180.702,417.107C180.702,362.39 222.754,317.494 276.305,312.975Z" style="fill:rgb(208,208,208);"/>
        </g>
    </g>
</svg>
